<?xml version="1.0" encoding="UTF-8" standalone="no"?>
<!DOCTYPE svg PUBLIC "-//W3C//DTD SVG 1.1//EN"
 "http://www.w3.org/Graphics/SVG/1.1/DTD/svg11.dtd">
<!-- Generated by graphviz version 2.43.0 (0)
 -->
<!-- Title: main Pages: 1 -->
<svg width="320pt" height="332pt"
 viewBox="0.00 0.00 320.04 332.00" xmlns="http://www.w3.org/2000/svg" xmlns:xlink="http://www.w3.org/1999/xlink">
<g id="graph0" class="graph" transform="scale(1 1) rotate(0) translate(4 328)">
<title>main</title>
<polygon fill="white" stroke="transparent" points="-4,4 -4,-328 316.04,-328 316.04,4 -4,4"/>
<!-- n0 -->
<g id="node1" class="node">
<title>n0</title>
<ellipse fill="none" stroke="black" cx="141.14" cy="-306" rx="48.19" ry="18"/>
<text text-anchor="middle" x="141.14" y="-302.3" font-family="Times,serif" font-size="14.00">Moscow</text>
</g>
<!-- n0&#45;&gt;n0 -->
<g id="edge1" class="edge">
<title>n0&#45;&gt;n0</title>
<path fill="none" stroke="black" d="M174.47,-319.03C191.7,-321.03 207.24,-316.69 207.24,-306 207.24,-297.48 197.37,-293 184.65,-292.54"/>
<polygon fill="black" stroke="black" points="184.31,-289.05 174.47,-292.97 184.61,-296.04 184.31,-289.05"/>
</g>
<!-- n1 -->
<g id="node2" class="node">
<title>n1</title>
<ellipse fill="none" stroke="black" cx="85.14" cy="-234" rx="85.29" ry="18"/>
<text text-anchor="middle" x="85.14" y="-230.3" font-family="Times,serif" font-size="14.00">Saint&#45;Petesburg</text>
</g>
<!-- n0&#45;&gt;n1 -->
<g id="edge2" class="edge">
<title>n0&#45;&gt;n1</title>
<path fill="none" stroke="black" d="M122.67,-289.12C114.99,-280.72 106.31,-270.2 99.15,-260.67"/>
<polygon fill="black" stroke="black" points="101.77,-258.33 93.06,-252.29 96.11,-262.44 101.77,-258.33"/>
</g>
<!-- n2 -->
<g id="node3" class="node">
<title>n2</title>
<ellipse fill="none" stroke="black" cx="269.14" cy="-234" rx="42.79" ry="18"/>
<text text-anchor="middle" x="269.14" y="-230.3" font-family="Times,serif" font-size="14.00">Kaluga</text>
</g>
<!-- n0&#45;&gt;n2 -->
<g id="edge3" class="edge">
<title>n0&#45;&gt;n2</title>
<path fill="none" stroke="black" d="M167.35,-290.67C186.85,-280 213.63,-265.36 234.84,-253.76"/>
<polygon fill="black" stroke="black" points="236.74,-256.71 243.84,-248.84 233.39,-250.57 236.74,-256.71"/>
</g>
<!-- n5 -->
<g id="node6" class="node">
<title>n5</title>
<ellipse fill="none" stroke="red" cx="188.14" cy="-162" rx="52.79" ry="18"/>
<text text-anchor="middle" x="188.14" y="-158.3" font-family="Times,serif" font-size="14.00">Yaroslavl</text>
</g>
<!-- n0&#45;&gt;n5 -->
<g id="edge4" class="edge">
<title>n0&#45;&gt;n5</title>
<path fill="none" stroke="black" d="M156.3,-288.67C164.52,-278.81 174.02,-265.56 179.14,-252 186.59,-232.3 188.67,-208.49 188.98,-190.46"/>
<polygon fill="black" stroke="black" points="192.48,-190.33 188.99,-180.33 185.48,-190.33 192.48,-190.33"/>
</g>
<!-- n1&#45;&gt;n0 -->
<g id="edge5" class="edge">
<title>n1&#45;&gt;n0</title>
<path fill="none" stroke="black" d="M104.44,-251.79C112.06,-260.19 120.55,-270.53 127.54,-279.86"/>
<polygon fill="black" stroke="black" points="124.77,-282 133.46,-288.05 130.44,-277.9 124.77,-282"/>
</g>
<!-- n3 -->
<g id="node4" class="node">
<title>n3</title>
<ellipse fill="none" stroke="red" cx="188.14" cy="-18" rx="55.79" ry="18"/>
<text text-anchor="middle" x="188.14" y="-14.3" font-family="Times,serif" font-size="14.00">Novgorod</text>
</g>
<!-- n1&#45;&gt;n3 -->
<g id="edge7" class="edge">
<title>n1&#45;&gt;n3</title>
<path fill="none" stroke="black" d="M89.2,-215.67C96.8,-185.19 115.01,-120.59 143.14,-72 149.07,-61.76 157.05,-51.6 164.65,-42.95"/>
<polygon fill="black" stroke="black" points="167.31,-45.23 171.45,-35.47 162.13,-40.52 167.31,-45.23"/>
</g>
<!-- n1&#45;&gt;n5 -->
<g id="edge6" class="edge">
<title>n1&#45;&gt;n5</title>
<path fill="none" stroke="black" d="M109.29,-216.59C123.51,-206.93 141.64,-194.6 156.93,-184.21"/>
<polygon fill="black" stroke="black" points="159.25,-186.87 165.56,-178.35 155.32,-181.08 159.25,-186.87"/>
</g>
<!-- n2&#45;&gt;n3 -->
<g id="edge9" class="edge">
<title>n2&#45;&gt;n3</title>
<path fill="none" stroke="black" d="M268.05,-215.62C265.54,-185.04 257.56,-120.31 233.14,-72 227.81,-61.44 219.96,-51.2 212.31,-42.58"/>
<polygon fill="black" stroke="black" points="214.79,-40.1 205.42,-35.16 209.66,-44.87 214.79,-40.1"/>
</g>
<!-- n2&#45;&gt;n5 -->
<g id="edge8" class="edge">
<title>n2&#45;&gt;n5</title>
<path fill="none" stroke="black" d="M251.17,-217.46C240.31,-208.08 226.28,-195.96 214.22,-185.54"/>
<polygon fill="black" stroke="black" points="216.48,-182.87 206.63,-178.98 211.91,-188.16 216.48,-182.87"/>
</g>
<!-- n4 -->
<g id="node5" class="node">
<title>n4</title>
<ellipse fill="none" stroke="red" cx="188.14" cy="-90" rx="36" ry="18"/>
<text text-anchor="middle" x="188.14" y="-86.3" font-family="Times,serif" font-size="14.00">Kirov</text>
</g>
<!-- n4&#45;&gt;n3 -->
<g id="edge11" class="edge">
<title>n4&#45;&gt;n3</title>
<path fill="none" stroke="black" d="M188.14,-71.7C188.14,-63.98 188.14,-54.71 188.14,-46.11"/>
<polygon fill="black" stroke="black" points="191.64,-46.1 188.14,-36.1 184.64,-46.1 191.64,-46.1"/>
</g>
<!-- n4&#45;&gt;n5 -->
<g id="edge10" class="edge">
<title>n4&#45;&gt;n5</title>
<path fill="none" stroke="black" d="M194,-107.79C194.84,-115.59 195.09,-125.07 194.74,-133.85"/>
<polygon fill="black" stroke="black" points="191.23,-133.83 194.02,-144.05 198.21,-134.33 191.23,-133.83"/>
</g>
<!-- n5&#45;&gt;n4 -->
<g id="edge12" class="edge">
<title>n5&#45;&gt;n4</title>
<path fill="none" stroke="black" d="M182.26,-144.05C181.43,-136.23 181.2,-126.75 181.55,-117.98"/>
<polygon fill="black" stroke="black" points="185.06,-118.01 182.28,-107.79 178.08,-117.51 185.06,-118.01"/>
</g>
</g>
</svg>
